<?xml version="1.0" encoding="utf-8"?>
<svg xmlns="http://www.w3.org/2000/svg" viewBox="0 0 400 400" xmlns:bx="https://boxy-svg.com" width="400px" height="400px"><defs><bx:export><bx:file format="svg" href="#object-0" path="Untitled 2.svg"/><bx:file format="svg"/></bx:export></defs><g transform="matrix(5.42622, 0, 0, 5.42622, 122.875, 107.948997)" style="" id="object-0"><path d="M 27.431 32.583 L -11.027 32.583 C -12.354 32.583 -13.431 31.506 -13.431 30.179 L -13.431 22.969 L 15.413 22.969 C 18.064 22.969 20.22 20.813 20.22 18.162 L 20.22 -10.681 L 27.431 -10.681 C 28.76 -10.681 29.834 -9.605 29.834 -8.278 L 29.834 30.179 C 29.834 31.506 28.76 32.583 27.431 32.583 Z" style="transform-origin: 8.201px 10.951px 0px; fill: rgb(255, 255, 255);" transform="matrix(-1, 0, 0, -1, 0, 0)"/><path d="M 39.449 44.602 L 0.992 44.602 C -0.335 44.602 -1.413 43.525 -1.413 42.198 L -1.413 3.74 C -1.413 2.413 -0.335 1.337 0.992 1.337 L 39.449 1.337 C 40.778 1.337 41.853 2.413 41.853 3.74 L 41.853 42.198 C 41.853 43.525 40.778 44.602 39.449 44.602 Z" style="transform-origin: 20.22px 22.969px 0px; fill: rgb(255, 255, 255);" transform="matrix(-1, 0, 0, -1, 0, 0)"/></g></svg>
