<?xml version="1.0" encoding="utf-8"?>
<svg xmlns="http://www.w3.org/2000/svg" viewBox="-4.8825 -4.1753 65.9999 54.4685" width="65.9999px" height="54.4685px"><g fill="white" transform="matrix(0.8802350163459778, 0, 0, 0.8802350163459778, -15.454601287841797, -20.957300186157227)" style="" id="object-0"><path d="m27.84 74.328c0.76172 1.1602 1.9297 1.9609 3.2891 2.2383 1.3594 0.28125 2.75 0.019532 3.9102-0.73828l2.0117-1.6602-11.242-11.227c-1.7383-1.7383-2.6914-4.0508-2.6914-6.5 0-2.4492 0.96094-4.7695 2.6914-6.5l30.172-30.172c0.058593-0.058593 0.14062-0.10938 0.19922-0.17969-1.6406-0.80859-3.6094-0.67969-5.1406 0.32031l-36.68 24.391c-2.3984 1.5703-3.0703 4.8008-1.5 7.1992z" style=""/><path d="m86.82 44.281-3.9805-15.34c-0.46875-1.8281-1.8984-3.25-3.7305-3.7305l-15.34-3.9805c-0.42969-0.10938-0.85938-0.17188-1.3008-0.17188-1.3594 0-2.6992 0.53906-3.6797 1.5195l-30.148 30.184c-0.98047 0.98047-1.5195 2.2891-1.5195 3.6719 0 1.3789 0.53906 2.6914 1.5195 3.6719l19.309 19.309c2.0312 2.0312 5.3203 2.0312 7.3516 0l30.172-30.172c1.2891-1.2812 1.8086-3.1914 1.3477-4.9609zm-12.32-4.8711c-0.78125 0.78125-1.8203 1.2109-2.9219 1.2109s-2.1406-0.42969-2.9219-1.2109-1.2109-1.8203-1.2109-2.9219c0-1.1016 0.42969-2.1406 1.2109-2.9219s1.8203-1.2109 2.9219-1.2109 2.1406 0.42969 2.9219 1.2109 1.2109 1.8203 1.2109 2.9219c0 1.1016-0.42969 2.1328-1.2109 2.9219z" style=""/></g></svg>
