<?xml version="1.0" encoding="utf-8"?>
<svg xmlns="http://www.w3.org/2000/svg" viewBox="0 0 300 300" xmlns:bx="https://boxy-svg.com" width="300px" height="300px"><defs><bx:export><bx:file format="svg"/><bx:file format="svg" href="#object-0" path="Untitled 2.svg"/></bx:export></defs><g transform="matrix(1.18715, 0, 0, 1.18715, -26.5366, -16.368299)" style="" id="object-0"><path d="M 157.172 64.97 C 163.204 74.629 163.966 86.548 159.55 97.169 C 182.492 96.857 205.432 95.465 228.178 93.098 C 232.905 93.722 230.81 88.758 230.713 85.622 C 229.056 74.59 223.238 64.855 214.261 58.207 C 211.65 56.436 209.517 53.9 207.099 57.264 C 202.967 61.386 201.271 65.401 200.316 68.471 C 198.709 73.401 191.205 70.985 192.714 66.054 C 196.358 54.953 207.08 41.787 224.064 44.254 C 229.182 44.76 230.106 37.061 224.933 36.417 C 209.35 34.72 198.863 41.601 192.345 50.101 C 178.448 49.351 166.821 54.448 157.181 64.97 L 157.172 64.97 Z" style="fill: rgb(255, 255, 255);"/><path d="M 72.562 93.447 C 98.563 96.013 124.672 97.337 150.808 97.249 C 161.392 79.054 147.992 56.836 127.545 55.998 C 114.254 55.002 104.838 58.012 99.421 64.816 C 95.22 70.138 94.247 76.764 94.392 82.212 C 94.452 84.463 92.512 86.267 90.26 86.14 C 88.185 86.072 86.508 84.424 86.461 82.347 C 86.294 75.487 87.571 66.98 93.214 59.905 C 101.166 48.522 123.25 44.692 139.135 50.451 C 137.71 48.513 136.17 46.893 134.903 45.706 C 137.955 42.742 148.43 34.392 165.398 42.032 C 167.377 42.899 169.707 42.032 170.622 40.015 C 171.528 38.037 170.622 35.707 168.643 34.792 C 148.869 25.932 134.232 34.517 128.532 40.961 C 102.852 22.579 69.192 45.14 66.473 72.759 C 66.2 80.067 65.41 89.54 72.554 93.439 L 72.562 93.447 Z" style="fill: rgb(255, 255, 255);"/><path d="M 256.342 113.466 C 255.155 104.841 247.367 98.869 238.623 99.901 C 234.824 100.34 231.025 100.72 227.232 101.169 C 200.061 103.936 172.581 105.358 145.272 105.164 C 116.396 105.115 87.481 103.245 58.81 99.901 C 50.07 98.869 42.273 104.841 41.092 113.466 C 39.72 121.925 46.219 130.601 54.814 131.389 C 85.825 135.064 117.429 136.962 148.712 136.962 C 179.995 136.962 211.6 135.064 242.61 131.389 C 251.207 130.601 257.716 121.936 256.331 113.466 L 256.342 113.466 Z" style="fill: rgb(255, 255, 255);"/><path d="M 148.712 144.875 C 116.513 144.779 83.955 143.074 52.077 138.94 L 71.939 214.254 C 72.016 215.368 74.316 236.212 109.517 245.226 C 109.117 244.398 108.727 243.609 108.366 242.77 C 90.765 205.154 91.555 161.007 91.634 158.717 C 91.935 153.564 99.526 153.697 99.546 158.912 C 99.623 158.951 99.04 212.189 119.602 247.313 C 126.443 248.426 134.24 249.137 143.177 249.292 L 143.177 163.582 C 143.177 161.409 144.959 159.626 147.134 159.626 C 149.307 159.626 151.09 161.409 151.09 163.582 L 151.09 249.292 C 160.027 249.137 167.862 248.426 174.663 247.313 C 194.915 212.427 195.082 158.62 194.72 158.912 C 194.693 153.747 202.361 153.522 202.633 158.717 C 202.713 161.007 203.501 205.154 185.939 242.77 C 185.501 243.512 185.189 244.458 184.75 245.264 C 219.989 236.251 222.213 215.404 222.289 214.412 L 242.064 139.42 C 241.353 139.538 240.642 139.614 239.931 139.653 C 209.788 143.132 179.1 144.879 148.723 144.879 L 148.712 144.875 Z" style="fill: rgb(255, 255, 255);"/></g></svg>
